<svg xmlns="http://www.w3.org/2000/svg" viewBox="0 0 800 800" width="800" height="800" role="img" aria-label="Stickers individuales — dibujo provisorio">
  <defs>
    <linearGradient id="g" x1="0" y1="0" x2="1" y2="1">
      <stop offset="0%" stop-color="#F1EBFC"/>
      <stop offset="100%" stop-color="#D8C9F3"/>
    </linearGradient>
    <pattern id="p" width="60" height="60" patternUnits="userSpaceOnUse" patternTransform="rotate(45)">
      <circle cx="15" cy="15" r="3" fill="#8460CE" opacity="0.15"/>
    </pattern>
  </defs>
  <rect width="800" height="800" fill="url(#g)"/>
  <rect width="800" height="800" fill="url(#p)"/>
  
    <path d="M400 214 l30 62 68 10 -49 48 12 68 -61 -32 -61 32 12 -68 -49 -48 68 -10z"
          fill="none" stroke="#8460CE" stroke-width="12" stroke-linejoin="round"/>
    <path d="M400 252 l20 42 46 7 -33 32 8 46 -41 -22 -41 22 8 -46 -33 -32 46 -7z"
          fill="#8460CE" opacity="0.2"/>
    <circle cx="486" cy="396" r="26" fill="none" stroke="#8460CE" stroke-width="10" opacity="0.6"/>
  <text x="400" y="546" text-anchor="middle" font-family="Verdana, Geneva, sans-serif" font-size="40" font-weight="bold" fill="#8460CE">Stickers</text>
  <text x="400" y="596" text-anchor="middle" font-family="Verdana, Geneva, sans-serif" font-size="40" font-weight="bold" fill="#8460CE">individuales</text>
  <text x="400" y="664" text-anchor="middle" font-family="Verdana, Geneva, sans-serif" font-size="21" letter-spacing="3" fill="#8460CE" opacity="0.65">FALTA LA FOTO</text>
</svg>
